<svg xmlns="http://www.w3.org/2000/svg" viewBox="0 0 128 128" role="img" aria-label="日历计划图标">
  <defs>
    <linearGradient id="bg" x1="18" y1="10" x2="110" y2="118" gradientUnits="userSpaceOnUse">
      <stop stop-color="#0A84FF" />
      <stop offset="1" stop-color="#34C759" />
    </linearGradient>
    <linearGradient id="page" x1="30" y1="27" x2="96" y2="104" gradientUnits="userSpaceOnUse">
      <stop stop-color="#FFFFFF" />
      <stop offset="1" stop-color="#F2F7FF" />
    </linearGradient>
    <filter id="shadow" x="12" y="10" width="104" height="112" filterUnits="userSpaceOnUse" color-interpolation-filters="sRGB">
      <feDropShadow dx="0" dy="8" stdDeviation="8" flood-color="#003D73" flood-opacity=".22" />
    </filter>
  </defs>
  <rect width="128" height="128" rx="28" fill="url(#bg)" />
  <g filter="url(#shadow)">
    <rect x="25" y="24" width="78" height="84" rx="18" fill="url(#page)" />
    <path d="M25 42C25 32.1 33.1 24 43 24h42c9.9 0 18 8.1 18 18v8H25v-8Z" fill="#FF3B30" />
    <rect x="43" y="15" width="8" height="22" rx="4" fill="#E5E5EA" />
    <rect x="77" y="15" width="8" height="22" rx="4" fill="#E5E5EA" />
    <circle cx="49" cy="69" r="8" fill="#0A84FF" />
    <circle cx="79" cy="69" r="8" fill="#34C759" />
    <circle cx="49" cy="92" r="8" fill="#FF9500" />
    <path d="M68 92h20" stroke="#0A84FF" stroke-width="8" stroke-linecap="round" />
    <path d="M68 92h11" stroke="#34C759" stroke-width="8" stroke-linecap="round" />
  </g>
</svg>
